<svg width="303" height="42" viewBox="0 0 303 42" fill="none" xmlns="http://www.w3.org/2000/svg">
<path d="M26.7224 21.1596L27.4227 19.6129C30.619 19.6485 33.2227 20.1285 35.2339 21.0529C37.281 21.9774 38.7714 23.2218 39.7051 24.7863C40.6748 26.3507 41.1596 28.1107 41.1596 30.0663C41.1596 32.1996 40.6389 34.084 39.5974 35.7196C38.5918 37.3552 37.1014 38.6529 35.1261 39.6129C33.1509 40.5374 30.6908 40.9996 27.7459 40.9996H0.810547L3.98891 20.4663L0.810547 0.999597H26.7762C30.5112 0.999597 33.3843 1.87071 35.3955 3.61293C37.4426 5.3196 38.4661 7.68404 38.4661 10.7063C38.4661 12.3063 38.0711 13.8707 37.281 15.3996C36.5268 16.8929 35.2878 18.1729 33.5639 19.2396C31.876 20.2707 29.5954 20.9107 26.7224 21.1596ZM7.97532 39.0263L5.22793 35.3463H26.9378C29.1645 35.3463 30.8883 34.8485 32.1094 33.8529C33.3664 32.8218 33.9949 31.364 33.9949 29.4796C33.9949 27.4885 33.2586 25.9418 31.7862 24.8396C30.3496 23.7374 28.2128 23.1863 25.3756 23.1863H7.86758V17.7463H24.6753C26.5787 17.7463 28.1589 17.2307 29.4159 16.1996C30.6729 15.1329 31.3013 13.6218 31.3013 11.6663C31.3013 10.2085 30.7806 9.01738 29.7391 8.09293C28.6976 7.13293 27.1892 6.65293 25.214 6.65293H5.22793L7.97532 2.97293L10.8305 20.4663L7.97532 39.0263ZM71.0944 21.1596L71.7947 19.6129C74.991 19.6485 77.5947 20.1285 79.6059 21.0529C81.653 21.9774 83.1434 23.2218 84.0772 24.7863C85.0468 26.3507 85.5317 28.1107 85.5317 30.0663C85.5317 32.1996 85.0109 34.084 83.9694 35.7196C82.9638 37.3552 81.4734 38.6529 79.4982 39.6129C77.5229 40.5374 75.0628 40.9996 72.1179 40.9996H45.1826L48.361 20.4663L45.1826 0.999597H71.1482C74.8833 0.999597 77.7564 1.87071 79.7675 3.61293C81.8146 5.3196 82.8381 7.68404 82.8381 10.7063C82.8381 12.3063 82.4431 13.8707 81.653 15.3996C80.8988 16.8929 79.6598 18.1729 77.9359 19.2396C76.248 20.2707 73.9675 20.9107 71.0944 21.1596ZM52.3474 39.0263L49.6 35.3463H71.3098C73.5365 35.3463 75.2604 34.8485 76.4814 33.8529C77.7384 32.8218 78.3669 31.364 78.3669 29.4796C78.3669 27.4885 77.6307 25.9418 76.1582 24.8396C74.7216 23.7374 72.5848 23.1863 69.7476 23.1863H52.2397V17.7463H69.0473C70.9507 17.7463 72.5309 17.2307 73.7879 16.1996C75.0449 15.1329 75.6734 13.6218 75.6734 11.6663C75.6734 10.2085 75.1526 9.01738 74.1111 8.09293C73.0696 7.13293 71.5612 6.65293 69.586 6.65293H49.6L52.3474 2.97293L55.2026 20.4663L52.3474 39.0263ZM94.3958 31.8263V26.0129H122.624V31.8263H94.3958ZM113.143 0.999597L132.536 40.9996H124.94L107.325 3.66626H110.072L92.4565 40.9996H84.8607L104.254 0.999597H113.143ZM142.209 4.25293H149.32V40.9996H142.209V4.25293ZM125.509 0.999597H166.02V7.18627H125.509V0.999597ZM178.823 27.9863H186.042C186.257 29.5863 186.922 30.9907 188.035 32.1996C189.184 33.4085 190.692 34.3507 192.56 35.0263C194.428 35.6663 196.582 35.9863 199.024 35.9863C202.652 35.9863 205.525 35.4352 207.644 34.3329C209.763 33.1952 210.822 31.6663 210.822 29.7463C210.822 28.1818 210.212 27.0085 208.991 26.2263C207.769 25.444 205.561 24.8574 202.364 24.4663L193.637 23.3463C188.753 22.7063 185.198 21.5152 182.971 19.7729C180.78 17.9952 179.685 15.4885 179.685 12.2529C179.685 9.7996 180.421 7.68404 181.894 5.90627C183.402 4.09293 185.521 2.70627 188.25 1.74627C190.98 0.750709 194.176 0.25293 197.839 0.25293C201.467 0.25293 204.681 0.786264 207.482 1.85293C210.283 2.9196 212.51 4.41293 214.162 6.33293C215.85 8.21738 216.766 10.4396 216.909 12.9996H209.691C209.511 11.5774 208.901 10.3507 207.859 9.3196C206.854 8.28849 205.489 7.48849 203.765 6.9196C202.041 6.31515 200.012 6.01293 197.678 6.01293C194.374 6.01293 191.734 6.54626 189.759 7.61293C187.783 8.6796 186.796 10.1374 186.796 11.9863C186.796 13.4085 187.37 14.5107 188.52 15.2929C189.705 16.0396 191.752 16.6085 194.661 16.9996L203.496 18.2263C207.123 18.724 209.978 19.3996 212.061 20.2529C214.18 21.0707 215.688 22.1907 216.586 23.6129C217.484 24.9996 217.933 26.7952 217.933 28.9996C217.933 31.5596 217.143 33.7996 215.563 35.7196C213.982 37.6396 211.756 39.1329 208.883 40.1996C206.046 41.2307 202.724 41.7463 198.917 41.7463C195.038 41.7463 191.608 41.1774 188.627 40.0396C185.683 38.8663 183.348 37.2485 181.624 35.1863C179.9 33.1241 178.967 30.724 178.823 27.9863ZM229.878 23.8263C229.878 26.2085 230.363 28.2707 231.332 30.0129C232.302 31.7552 233.685 33.1063 235.48 34.0663C237.312 34.9907 239.485 35.4529 241.999 35.4529C244.548 35.4529 246.721 34.9907 248.517 34.0663C250.313 33.1063 251.695 31.7552 252.665 30.0129C253.635 28.2707 254.119 26.2085 254.119 23.8263V0.999597H261.23V24.0929C261.23 27.6129 260.422 30.7063 258.806 33.3729C257.19 36.004 254.945 38.0663 252.072 39.5596C249.199 41.0174 245.841 41.7463 241.999 41.7463C238.192 41.7463 234.834 41.0174 231.925 39.5596C229.052 38.0663 226.807 36.004 225.191 33.3729C223.575 30.7063 222.767 27.6129 222.767 24.0929V0.999597H229.878V23.8263ZM300.787 18.0663V23.9329H272.559V18.0663H300.787ZM277.246 20.9996L274.39 38.8663L270.997 34.9196H302.349V40.9996H267.118L270.35 20.9996L267.118 0.999597H302.08V7.0796H270.997L274.39 3.13293L277.246 20.9996Z" fill="#333333"/>
</svg>
